<?xml version='1.0' encoding='utf-8'?>
<svg xmlns="http://www.w3.org/2000/svg" width="1300px" height="1e3px" version="1.1" viewBox="-290 214 1300 1e3"> <g fill="#ffd374"> <path d="m-290 212.88c-0.2965 0-0.58082 0.11778-0.79047 0.32742-0.20966 0.20964-0.32743 0.49397-0.32743 0.79046l1e-3 1e3c0 0.6174 0.50053 1.1179 1.1179 1.1179l1300 1e-3c0.2965 0 0.5808-0.1179 0.79044-0.3275 0.20966-0.2096 0.3274-0.4939 0.3274-0.7904l-9.8e-4 -1e3c0-0.61739-0.50046-1.1179-1.1179-1.1179l-1300-0.00101z"/> </g> <g fill="#26785f"> <path d="m718.38 992.02c4.8854 1.3452 7.5107 2.0403 7.5737 1.9905 0.34925-0.44452 16.806-57.24 36.583-126.35l36.047-125.62-252.83-73.105-252.86-72.998-36.445 126.61-36.441 126.61 252.62 72.71c118.1 33.989 218.12 62.538 245.76 70.15zm-66.476-73.395-164.39-47.309-164.4-47.318 328.79 94.627zm-125.54-186.53c0.0826 0.02134 0.1659 0.04527 0.24987 0.07005 0.08143 0.02445 0.16173 0.04465 0.24563 0.06535zm168.76 34.459-328.48-94.544 164.29 47.283 164.19 47.26z"/> <path d="m727.28 1002.2c0.34604-0.4466 16.804-57.239 36.585-126.35l36.046-125.62-252.83-73.103-252.86-72.999-36.443 126.61-36.442 126.61 252.62 72.711c138.97 39.996 252.91 72.461 253.33 72.145zm-402.27-176.21c1.2449-12.698-2.3274-23.156-11.083-32.367-3.2079-3.3384-6.8215-6.0199-10.219-7.5538-2.9575-1.1772-5.4535-2.7767-5.6124-3.3665-0.66455-2.2764 19.98-73.989 21.486-74.654 0.72387-0.2253 3.6608-0.1489 6.5131 0.2339 6.7183 1.0593 18.61-1.7698 24.815-5.7921 6.2628-4.2312 11.995-10.809 14.801-17.132l2.2554-5.1599 164.29 47.276 164.19 47.262-0.60827 7.0621c-0.34412 3.8519-0.26566 8.9146 0.16794 11.235 2.148 10.822 11.203 23.185 20.185 27.421 2.1404 0.94195 4.8281 2.2629 5.9595 2.9201l2.2094 1.0736-10.786 37.477c-12.067 41.93-9.9304 37.937-19.326 36.659-6.7733-0.85186-15.099 1.0303-22.406 5.0682-7.827 4.3302-15.818 13.435-17.772 20.219l-0.8451 2.9352-164.39-47.31-164.39-47.317 0.5729-6.1898z"/> <path d="m503.74 868.9c11.951 1.1398 25.398-1.3551 36.048-6.7324 10.294-5.2676 17.147-11.188 24.289-20.759 4.9671-6.5817 5.664-8.2433 9.0148-19.895 3.2688-11.344 3.5715-13.559 2.9979-21.073-1.1114-16.329-7.2104-30.587-17.509-41.669-19.522-20.973-51.926-26.898-77.082-14.179-29.405 14.896-43.53 47.572-33.772 78.456 7.7982 24.74 30.622 43.37 56.013 45.851z"/> </g> <g fill="#2aaf86"> <path d="m492.75 866.79c-20.79-5.9812-38.37-22.643-45.021-43.742-9.7582-30.884 4.3672-63.56 33.772-78.456 14.6-7.3805 31.64-8.489 47.185-4.0108 11.242 3.234 21.703 9.3914 29.897 18.19 10.299 11.081 16.398 25.339 17.509 41.669 0.5736 7.5142 0.2709 9.729-2.9979 21.073-3.3508 11.652-4.0477 13.313-9.0148 19.895-7.1418 9.571-13.995 15.492-24.289 20.759-10.65 5.3773-24.097 7.8721-36.048 6.7324-3.7345-0.36401-7.4124-1.0829-10.992-2.1088zm160.48 60.043 0.8451-2.9352c1.9545-6.784 9.9452-15.889 17.772-20.219 7.3075-4.0378 15.633-5.92 22.406-5.0682 9.396 1.2777 7.2594 5.2704 19.326-36.659l10.786-37.477-2.2094-1.0736c-1.1314-0.65716-3.8191-1.9782-5.9595-2.9201-8.982-4.2357-18.037-16.599-20.185-27.421-0.4336-2.3202-0.51206-7.3829-0.16794-11.235l0.60827-7.0621-328.48-94.538-2.2554 5.1599c-2.8057 6.3232-8.538 12.901-14.801 17.132-6.2049 4.0223-18.097 6.8514-24.815 5.7921-2.8523-0.3828-5.7892-0.4592-6.5131-0.2339-1.5066 0.66504-22.151 72.378-21.486 74.654 0.15893 0.58983 2.6549 2.1893 5.6124 3.3665 3.3971 1.5339 7.0108 4.2154 10.219 7.5538 8.7552 9.2108 12.327 19.669 11.083 32.367l-0.5729 6.1898z"/> </g> <g fill="#26785f"> <path d="m776.98 707.09c4.9036-1.2791 7.5243-1.9909 7.5532-2.0634 0.07864-0.56114-14.062-57.977-31.488-127.72l-31.593-126.81-255.51 63.108-255.48 63.215 63.49 255.74 255.13-63.343c119.27-29.611 220.16-54.896 247.9-62.122zm-94.267-30.324-166.02 41.226-166.03 41.218 332.05-82.444zm-201.98-98.774c0.08302-0.02226 0.1642-0.04401 0.25184-0.06316 0.08118-0.02174 0.16288-0.0458 0.24674-0.0672zm163.38-54.539-331.74 82.366 165.92-41.197 165.82-41.169z"/> <path d="m789.79 711.48c0.0769-0.5614-14.066-57.974-31.494-127.72l-31.594-126.81-255.51 63.108-255.49 63.215 31.745 127.86 31.744 127.87 255.13-63.339c140.35-34.845 255.26-63.699 255.47-64.184zm-436.48 48.53c-5.273-11.617-13.596-18.889-25.783-22.49-4.4476-1.2854-8.9176-1.8026-12.626-1.4318-3.1505 0.45944-6.1106 0.3239-6.5435-0.10874-1.7151-1.6395-19.692-74.066-18.723-75.394 0.51563-0.55745 3.0972-1.9596 5.7586-3.0548 6.3471-2.4423 15.234-10.838 18.596-17.423 3.308-6.7967 4.984-15.36 4.2533-22.239l-0.63024-5.5958 165.92-41.203 165.82-41.167 3.0041 6.4209c1.6283 3.5078 4.2273 7.8548 5.7624 9.6443 7.2715 8.3004 21.298 14.478 31.194 13.656 2.3225-0.2536 5.3107-0.45288 6.6185-0.45054l2.4525-0.1754 9.3953 37.848c10.515 42.349 10.37 37.823 1.5914 41.414-6.2871 2.6461-12.557 8.4416-16.865 15.59-4.6145 7.6652-6.9835 19.547-5.2864 26.401l0.73669 2.9646-166.02 41.223-166.03 41.217-2.5969-5.6481z"/> <path d="m529.53 707.78c10.922-4.9878 21.319-13.874 27.853-23.856 6.2815-9.7075 9.2594-18.263 10.657-30.122 1.0103-8.1835 0.7832-9.9722-2.1365-21.738-2.8441-11.456-3.6892-13.526-7.9443-19.746-9.1285-13.588-21.539-22.887-35.999-27.334-27.392-8.4008-58.417 2.6701-73.843 26.261-18.018 27.606-13.914 62.967 9.9792 84.835 19.125 17.525 48.205 22.247 71.434 11.699z"/> </g> <g fill="#2aaf86"> <path d="m518.96 711.45c-20.993 5.2155-44.547-0.42345-60.86-15.368-23.893-21.868-27.997-57.229-9.9792-84.835 8.9541-13.691 23.157-23.169 38.857-27.064 11.354-2.8178 23.491-2.7196 34.986 0.80324 14.46 4.4466 26.87 13.746 35.999 27.334 4.2551 6.22 5.1002 8.2897 7.9443 19.746 2.9197 11.766 3.1468 13.555 2.1365 21.738-1.3972 11.859-4.3751 20.414-10.657 30.122-6.5337 9.9825-16.931 18.868-27.853 23.856-3.4156 1.5503-6.9593 2.7672-10.574 3.6685zm169-28.238-0.73669-2.9646c-1.6972-6.8532 0.67187-18.735 5.2864-26.401 4.308-7.1487 10.577-12.944 16.865-15.59 8.7782-3.5918 8.9234 0.93456-1.5914-41.414l-9.3953-37.848-2.4525 0.1754c-1.3078-0.00234-4.296 0.19694-6.6185 0.45054-9.8961 0.82226-23.922-5.3551-31.194-13.656-1.5351-1.7895-4.1341-6.1365-5.7624-9.6443l-3.0041-6.4209-331.74 82.37 0.63024 5.5958c0.73071 6.8792-0.94534 15.443-4.2533 22.239-3.3624 6.5841-12.249 14.98-18.596 17.423-2.6614 1.0952-5.243 2.4974-5.7586 3.0548-0.96875 1.3279 17.008 73.754 18.723 75.394 0.43286 0.43264 3.3929 0.56818 6.5435 0.10874 3.7084-0.3707 8.1784 0.1464 12.626 1.4318 12.187 3.6007 20.51 10.872 25.783 22.49l2.5969 5.6481z"/> <path d="m367.16 449.59 88.093 8.3e-4 -3e-5 594.88-88.093 7e-4 3e-5 -594.88"/> </g> <g fill="#26785f"> <path d="m371.62 433.21 88.093 8.2e-4q0 297.44-3e-5 594.88-44.046 5e-4 -88.093 7e-4 0-297.44 0-594.88"/> </g> <g fill="#2aaf86"> <path d="m371.45 468.31 69.123 9.8e-4q0 260.98-4e-5 521.96-34.562 4.9e-4 -69.123 9.5e-4 0-260.98 0-521.96"/> </g> <g fill="#edeee2"> <path d="m396.49 436.98-336.51 2.2889 0.001152 589.26 336.51-2.2921 3e-5 -589.26z"/> </g> <g fill="#fff" fill-opacity=".5451"> <path d="m396.49 479.72-11.391 0.58825-13.708 0.70887 1.0776 20.85 24.021-1.239v-20.908z"/> </g> <g fill="#637079"> <path d="m163.88 1016.6 136.48 7e-4q0 17.393 0 34.786-68.241 5e-4 -136.48 8e-4 0-17.394 0-34.788"/> <path d="m149.16 417.42 173.74-8.9408q1.0099 19.624 2.0198 39.248-86.872 4.471-173.74 8.9419-1.01-19.624-2.02-39.249"/> </g> <path d="m180.84 429.3 101.32 3.7e-4q1.6773 0.00183 3.2068 0.06177 0.89392-0.00122 4.1498 0.29553 3.7793 0.42113 4.5549 1.1265 0.76343 0.38354-1.5272 1.1012-2.4689 0.59047-7.1808 0.78772-1.5326 0.06005-3.2035 0.06201l-101.32-4.8e-4q-5.1216-0.01844-8.5076-0.50196-3.3861-0.4834-3.5132-1.2151 0.12708-0.73182 3.5132-1.2157 3.386-0.48364 8.5076-0.50184m-52.997 30.91 207.31 6.1e-4q55.279 0.05908 60.342 0.69421l-1.5e-4 549.86-267.65 0.69434q-55.243-0.0593-60.343-0.69434l7e-5 -549.86q5.0984-0.63574 60.343-0.6947m65.877 561.54 75.558 7.4e-4q1.6712 0.00536 3.2035 0.428 0.89417-0.00784 4.1512 2.0708 3.7806 2.9482 4.5565 7.8866 0.76367 2.686-1.5274 7.7111-2.4689 4.1341-7.1812 5.5167-1.5332 0.4233-3.2028 0.4279l-75.558 5e-4q-5.1216-0.1277-8.5077-3.5134-3.386-3.386-3.5129-8.5073 0.12695-5.1219 3.5129-8.5084 3.3861-3.3865 8.5077-3.5132m163.65-618.21-251.75 3.8e-4q-11.186-1.7783-30.152 11.326-15.502 13.364-18.684 35.744l-0.4483 62.874q-3.3532 0.66089-3.6294 4.1203l-1.2e-4 123.92q0.27618 3.459 3.6295 4.1199l-1.3e-4 359.42q-1.0339 4.2016 3.8611 21.245 11.183 27.452 38.717 32.739l258.45 0.496q11.186 1.782 30.152-11.323 15.502-13.364 18.684-35.744l0.44835-410.96q3.7854-0.1187 4.1333-1.3491v-40.232q-0.3479-1.23-4.1333-1.3486l4e-5 -100.57q-0.01916-7.5668-1.7545-14.515-10.99-37.3-47.529-39.964z"/> <g fill="#f4af05"> <path d="m217.14 619.69 0.92725 88.715q-4.0717-1.759-8.1434-3.518-3.6168-1.3134-7.2382-3.0771-4.0718-1.7589-8.6081-4.8642-4.5315-2.6549-8.6363-7.5662-3.6497-4.4658-6.4271-11.643-2.7725-6.7264-2.8713-16.184-0.10834-10.358 3.419-17.601 3.077-7.2381 8.8795-12.253 5.3521-5.0101 12.98-7.7922 7.177-2.7771 15.719-4.2176zm24.815 133.5q4.0669 1.3088 8.1388 3.0676 3.6168 1.3136 7.238 3.0772 8.5988 3.9636 17.249 12.881 8.6504 8.917 8.8528 28.281 0.40464 38.728-40.505 45.911l-0.97428-93.218zm-13.832-202.98q-4.9537 0.0518-8.5186 3.6921-3.1195 3.1852-3.0678 8.1389l0.23067 22.066q-36.444 3.5333-57.393 24.47-20.954 20.486-20.582 56.062 0.21181 20.265 7.108 33.704 6.8916 12.989 18.244 21.878 11.352 8.8892 25.374 14.598 14.021 5.7084 28.934 10.507l1.0731 102.67q-13.064-0.31406-23-2.9124-9.4804-2.153-17.169-5.2251-7.2335-2.6269-12.661-4.8218-5.4275-2.1954-9.9308-2.1485-7.2052 0.07547-12.102 5.5312-4.4469 5.451-4.3763 12.206 0.09414 9.0065 8.2659 15.226 8.1671 5.7692 20.368 9.6955 11.751 3.9306 25.73 5.586 13.529 1.6601 25.242 1.988l0.22589 21.616q0.05175 4.9537 3.6921 8.5187 3.1852 3.119 8.1388 3.0675 4.9536-0.0518 8.5187-3.6919 3.1193-3.1853 3.0675-8.139l-0.23529-22.516q17.089-2.4306 31.429-9.3362 14.34-6.9057 25.035-17.826 10.244-10.916 15.948-25.388 5.7035-14.472 5.5108-32.935-0.20715-19.814-7.5536-33.249-6.8962-13.439-18.248-22.328-10.902-8.8936-25.374-14.597-14.021-5.7084-28.484-10.512l-1.0122-96.821q9.4663 0.8018 16.245 2.9829 6.7738 1.7305 12.201 3.9257 5.4227 1.745 9.945 3.4993 4.5173 1.3041 9.4708 1.2523 8.5564-0.08946 13.454-5.5453 4.4514-5.0006 4.3807-11.756-0.08483-8.1059-6.8961-13.439-6.3611-5.3382-16.306-8.8371-9.945-3.4993-21.672-5.1782-11.272-1.2333-21.189-2.0303l-0.23065-22.066q-0.05173-4.9536-3.6922-8.5186-3.1852-3.1195-8.1388-3.0677z"/> </g> <g fill="#fdd908"> <path d="m222.52 617.16 0.92731 88.715q-4.0717-1.759-8.1436-3.5177-3.6167-1.3135-7.2381-3.0774-4.0718-1.7586-8.608-4.8639-4.5316-2.6551-8.6364-7.5662-3.6497-4.466-6.4271-11.643-2.7725-6.7268-2.8714-16.183-0.10825-10.358 3.419-17.601 3.077-7.2381 8.8796-12.253 5.352-5.01 12.98-7.792 7.177-2.7773 15.719-4.2176zm24.815 133.5q4.067 1.3086 8.1388 3.0676 3.6169 1.3134 7.2383 3.0771 8.5987 3.9636 17.249 12.881 8.6504 8.917 8.8527 28.281 0.40478 38.728-40.504 45.911l-0.97439-93.218zm-13.831-202.98q-4.9537 0.05175-8.5185 3.692-3.1196 3.1851-3.0678 8.1387l0.23065 22.066q-36.444 3.5333-57.393 24.47-20.954 20.486-20.582 56.062 0.21179 20.265 7.108 33.704 6.8915 12.989 18.244 21.878 11.352 8.8892 25.374 14.598 14.021 5.7083 28.934 10.507l1.0732 102.67q-13.064-0.31397-23-2.9122-9.4804-2.1531-17.169-5.2251-7.2336-2.6268-12.661-4.8221-5.4275-2.1952-9.9308-2.1482-7.2053 0.07544-12.102 5.5311-4.4468 5.451-4.3762 12.206 0.09415 9.0065 8.2659 15.227 8.1671 5.7694 20.368 9.6955 11.751 3.9306 25.73 5.5858 13.529 1.6601 25.242 1.9884l0.22598 21.616q0.05179 4.9535 3.6922 8.5187 3.1851 3.1192 8.1389 3.0675 4.9536-0.05174 8.5185-3.6919 3.1193-3.1853 3.0677-8.1389l-0.23551-22.516q17.089-2.4306 31.429-9.3362 14.34-6.9055 25.035-17.826 10.244-10.916 15.948-25.388 5.7037-14.472 5.5108-32.935-0.20722-19.814-7.5536-33.249-6.8961-13.439-18.248-22.328-10.902-8.8936-25.374-14.597-14.021-5.7084-28.484-10.512l-1.012-96.821q9.4662 0.8017 16.245 2.9828 6.7738 1.7308 12.201 3.926 5.4227 1.745 9.9449 3.4991 4.5174 1.304 9.471 1.2522 8.5564-0.0895 13.454-5.5453 4.4514-5.0006 4.3809-11.755-0.08472-8.1061-6.8962-13.439-6.3612-5.3382-16.306-8.8372-9.9449-3.4993-21.672-5.1784-11.272-1.2333-21.189-2.0302l-0.23068-22.066q-0.05167-4.9537-3.6921-8.5186-3.1851-3.1194-8.1388-3.0675z"/> </g> <g fill="#28a73f"> <path d="m275.96 542.54-4e-5 3.7e-4 -2e-5 3.3e-4 2e-5 -3.3e-4 4e-5 -3.7e-4 -4e-5 3.7e-4 -2e-5 3.3e-4q2e-5 -3.3e-4 6e-5 -7e-4"/> </g> <g fill-opacity=".3451"> <path d="m856.5 1054-4.3538 1.6133q-30.954 4.8752-181.14 7.7981-151.23 2.9206-356.16 2.3686-195.58-0.7714-312.84-4.5151-37.572-1.2102-61.895-2.6372l-20.443-1.4673q-16.847-1.5142-17.037-3.1604 5.1143-5.0518 139.69-8.4065 134.58-3.3547 337.24-3.4822 202.67 0.1275 337.24 3.4822 134.58 3.3547 139.69 8.4065"/> </g> </svg>